<svg xmlns="http://www.w3.org/2000/svg" version="1.1" xmlns:xlink="http://www.w3.org/1999/xlink" xmlns:svgjs="http://svgjs.com/svgjs" width="1440" height="560" preserveAspectRatio="none" viewBox="0 0 1440 560"><g mask="url(&quot;#SvgjsMask1006&quot;)" fill="none"><path d="M862.01 598.2C971.04 552.68 897.26 232.75 1137.55 214.21 1377.83 195.67 1548.04 102.77 1688.62 102.21" stroke="rgba(51,121,194,0.58)" stroke-width="2"></path><path d="M562.44 671.04C680.8 628.51 630.12 278.61 873.56 275.69 1116.99 272.77 1337.48 392.78 1495.79 393.29" stroke="rgba(51,121,194,0.58)" stroke-width="2"></path><path d="M276.27 649.72C451.43 645.51 584.28 406.06 930.95 399.54 1277.63 393.02 1413.98 194.79 1585.64 192.34" stroke="rgba(51,121,194,0.58)" stroke-width="2"></path><path d="M981.48 576.63C1091.44 501.29 1023.14 109.86 1223.42 101.52 1423.7 93.18 1581.76 234.68 1707.3 235.92" stroke="rgba(51,121,194,0.58)" stroke-width="2"></path><path d="M651.04 600.07C767.24 567.35 726.35 243.38 975.16 242.15 1223.97 240.92 1457.3 386.86 1623.4 387.75" stroke="rgba(51,121,194,0.58)" stroke-width="2"></path></g><defs><mask id="SvgjsMask1006"><rect width="1440" height="560" fill="#ffffff"></rect></mask></defs></svg>